<!--?xml version="1.0" standalone="no"?-->
              <svg id="sw-js-blob-svg" viewBox="0 0 100 100" xmlns="http://www.w3.org/2000/svg" version="1.1">
                    <defs> 
                        <linearGradient id="sw-gradient" x1="0" x2="1" y1="1" y2="0">
                            <stop id="stop1" stop-color="rgba(255, 0, 0, 1)" offset="0%"></stop>
                            <stop id="stop2" stop-color="rgba(255, 158.795, 0, 1)" offset="100%"></stop>
                        </linearGradient>
                    </defs>
                <path fill="url(#sw-gradient)" d="M25.6,-34.1C32.5,-30.3,36.9,-21.8,38.7,-13.3C40.6,-4.7,39.9,4,36.4,10.9C32.9,17.8,26.6,22.8,20.1,29C13.5,35.1,6.8,42.4,0,42.3C-6.7,42.3,-13.3,34.9,-20.9,29.1C-28.5,23.3,-37,19,-41.3,12C-45.6,4.9,-45.7,-5,-41,-11.4C-36.3,-17.9,-26.8,-20.8,-19.2,-24.4C-11.5,-28.1,-5.8,-32.3,1.8,-34.8C9.4,-37.3,18.8,-38,25.6,-34.1Z" width="100%" height="100%" transform="translate(50 50)" stroke-width="0" style="transition: all 0.3s ease 0s;"></path>
              </svg>