<!--?xml version="1.0" standalone="no"?-->
              <svg id="sw-js-blob-svg" viewBox="0 0 100 100" xmlns="http://www.w3.org/2000/svg" version="1.1">
                    <defs> 
                        <linearGradient id="sw-gradient" x1="0" x2="1" y1="1" y2="0">
                            <stop id="stop1" stop-color="rgba(242.023, 82.54, 7.059, 1)" offset="0%"></stop>
                            <stop id="stop2" stop-color="rgba(252.262, 159.45, 6.252, 1)" offset="100%"></stop>
                        </linearGradient>
                    </defs>
                <path fill="url(#sw-gradient)" d="M19,-23.1C22.5,-19.8,21.6,-11.7,20.8,-5.3C20,1.2,19.4,6,17.5,10.7C15.5,15.4,12.2,19.9,6.3,25.6C0.4,31.4,-8.1,38.5,-16,38.1C-23.9,37.8,-31.2,30,-32.7,21.6C-34.3,13.3,-30,4.4,-27.4,-3.8C-24.8,-12,-23.7,-19.5,-19.4,-22.7C-15.1,-25.9,-7.6,-24.8,0.1,-25C7.8,-25.1,15.6,-26.5,19,-23.1Z" width="100%" height="100%" transform="translate(50 50)" stroke-width="0" style="transition: all 0.3s ease 0s;" stroke="url(#sw-gradient)"></path>
              </svg>