<!--?xml version="1.0" standalone="no"?-->
              <svg id="sw-js-blob-svg" viewBox="0 0 100 100" xmlns="http://www.w3.org/2000/svg" version="1.1">
                    <defs> 
                        <linearGradient id="sw-gradient" x1="0" x2="1" y1="1" y2="0">
                            <stop id="stop1" stop-color="rgba(255, 93.309, 16.784, 1)" offset="0%"></stop>
                            <stop id="stop2" stop-color="rgba(251.196, 175.073, 49.424, 1)" offset="100%"></stop>
                        </linearGradient>
                    </defs>
                <path fill="url(#sw-gradient)" d="M23.4,-34.5C30.4,-32,36,-25.5,38.5,-18.2C40.9,-10.8,40.2,-2.6,35.8,2.9C31.5,8.3,23.5,10.9,18.7,15.7C13.8,20.5,12,27.5,7.2,32.6C2.5,37.6,-5.2,40.6,-12.1,39.4C-19.1,38.2,-25.3,32.8,-26.4,26C-27.5,19.2,-23.5,11,-24.3,3.7C-25.1,-3.6,-30.6,-10.1,-29.5,-13.9C-28.4,-17.7,-20.6,-18.8,-14.6,-21.8C-8.6,-24.7,-4.3,-29.4,2,-32.5C8.3,-35.5,16.5,-37,23.4,-34.5Z" width="100%" height="100%" transform="translate(50 50)" stroke-width="0" style="transition: all 0.3s ease 0s;"></path>
              </svg>