<svg xmlns="http://www.w3.org/2000/svg" version="1.1" xmlns:xlink="http://www.w3.org/1999/xlink" xmlns:svgjs="http://svgjs.dev/svgjs" width="1440" height="560" preserveAspectRatio="none" viewBox="0 0 1440 560"><g mask="url(&quot;#SvgjsMask1000&quot;)" fill="none"><rect width="1440" height="560" x="0" y="0" fill="#0e2a47"></rect><path d="M39.28 -5.98L104.23 31.52L104.23 106.52L39.28 144.02L-25.67 106.52L-25.67 31.52zM234.14 106.52L299.1 144.02L299.1 219.02L234.14 256.52L169.19 219.02L169.19 144.02zM169.19 219.02L234.14 256.52L234.14 331.52L169.19 369.02L104.23 331.52L104.23 256.52zM299.1 444.02L364.05 481.52L364.05 556.52L299.1 594.02L234.14 556.52L234.14 481.52zM429 -5.98L493.96 31.52L493.96 106.52L429 144.02L364.05 106.52L364.05 31.52zM688.82 -5.98L753.77 31.52L753.77 106.52L688.82 144.02L623.86 106.52L623.86 31.52zM753.77 331.52L818.73 369.02L818.73 444.02L753.77 481.52L688.82 444.02L688.82 369.02zM948.63 -5.98L1013.59 31.52L1013.59 106.52L948.63 144.02L883.68 106.52L883.68 31.52zM1273.4 331.52L1338.35 369.02L1338.35 444.02L1273.4 481.52L1208.45 444.02L1208.45 369.02zM1533.22 331.52L1598.17 369.02L1598.17 444.02L1533.22 481.52L1468.26 444.02L1468.26 369.02z" stroke="#03305d" stroke-width="2"></path><path d="M31.78 -5.98 a7.5 7.5 0 1 0 15 0 a7.5 7.5 0 1 0 -15 0zM96.73 31.52 a7.5 7.5 0 1 0 15 0 a7.5 7.5 0 1 0 -15 0zM96.73 106.52 a7.5 7.5 0 1 0 15 0 a7.5 7.5 0 1 0 -15 0zM31.78 144.02 a7.5 7.5 0 1 0 15 0 a7.5 7.5 0 1 0 -15 0zM-33.17 106.52 a7.5 7.5 0 1 0 15 0 a7.5 7.5 0 1 0 -15 0zM-33.17 31.52 a7.5 7.5 0 1 0 15 0 a7.5 7.5 0 1 0 -15 0zM226.64 106.52 a7.5 7.5 0 1 0 15 0 a7.5 7.5 0 1 0 -15 0zM291.6 144.02 a7.5 7.5 0 1 0 15 0 a7.5 7.5 0 1 0 -15 0zM291.6 219.02 a7.5 7.5 0 1 0 15 0 a7.5 7.5 0 1 0 -15 0zM226.64 256.52 a7.5 7.5 0 1 0 15 0 a7.5 7.5 0 1 0 -15 0zM161.69 219.02 a7.5 7.5 0 1 0 15 0 a7.5 7.5 0 1 0 -15 0zM161.69 144.02 a7.5 7.5 0 1 0 15 0 a7.5 7.5 0 1 0 -15 0zM226.64 331.52 a7.5 7.5 0 1 0 15 0 a7.5 7.5 0 1 0 -15 0zM161.69 369.02 a7.5 7.5 0 1 0 15 0 a7.5 7.5 0 1 0 -15 0zM96.73 331.52 a7.5 7.5 0 1 0 15 0 a7.5 7.5 0 1 0 -15 0zM96.73 256.52 a7.5 7.5 0 1 0 15 0 a7.5 7.5 0 1 0 -15 0zM291.6 444.02 a7.5 7.5 0 1 0 15 0 a7.5 7.5 0 1 0 -15 0zM356.55 481.52 a7.5 7.5 0 1 0 15 0 a7.5 7.5 0 1 0 -15 0zM356.55 556.52 a7.5 7.5 0 1 0 15 0 a7.5 7.5 0 1 0 -15 0zM291.6 594.02 a7.5 7.5 0 1 0 15 0 a7.5 7.5 0 1 0 -15 0zM226.64 556.52 a7.5 7.5 0 1 0 15 0 a7.5 7.5 0 1 0 -15 0zM226.64 481.52 a7.5 7.5 0 1 0 15 0 a7.5 7.5 0 1 0 -15 0zM421.5 -5.98 a7.5 7.5 0 1 0 15 0 a7.5 7.5 0 1 0 -15 0zM486.46 31.52 a7.5 7.5 0 1 0 15 0 a7.5 7.5 0 1 0 -15 0zM486.46 106.52 a7.5 7.5 0 1 0 15 0 a7.5 7.5 0 1 0 -15 0zM421.5 144.02 a7.5 7.5 0 1 0 15 0 a7.5 7.5 0 1 0 -15 0zM356.55 106.52 a7.5 7.5 0 1 0 15 0 a7.5 7.5 0 1 0 -15 0zM356.55 31.52 a7.5 7.5 0 1 0 15 0 a7.5 7.5 0 1 0 -15 0zM681.32 -5.98 a7.5 7.5 0 1 0 15 0 a7.5 7.5 0 1 0 -15 0zM746.27 31.52 a7.5 7.5 0 1 0 15 0 a7.5 7.5 0 1 0 -15 0zM746.27 106.52 a7.5 7.5 0 1 0 15 0 a7.5 7.5 0 1 0 -15 0zM681.32 144.02 a7.5 7.5 0 1 0 15 0 a7.5 7.5 0 1 0 -15 0zM616.36 106.52 a7.5 7.5 0 1 0 15 0 a7.5 7.5 0 1 0 -15 0zM616.36 31.52 a7.5 7.5 0 1 0 15 0 a7.5 7.5 0 1 0 -15 0zM746.27 331.52 a7.5 7.5 0 1 0 15 0 a7.5 7.5 0 1 0 -15 0zM811.23 369.02 a7.5 7.5 0 1 0 15 0 a7.5 7.5 0 1 0 -15 0zM811.23 444.02 a7.5 7.5 0 1 0 15 0 a7.5 7.5 0 1 0 -15 0zM746.27 481.52 a7.5 7.5 0 1 0 15 0 a7.5 7.5 0 1 0 -15 0zM681.32 444.02 a7.5 7.5 0 1 0 15 0 a7.5 7.5 0 1 0 -15 0zM681.32 369.02 a7.5 7.5 0 1 0 15 0 a7.5 7.5 0 1 0 -15 0zM941.13 -5.98 a7.5 7.5 0 1 0 15 0 a7.5 7.5 0 1 0 -15 0zM1006.09 31.52 a7.5 7.5 0 1 0 15 0 a7.5 7.5 0 1 0 -15 0zM1006.09 106.52 a7.5 7.5 0 1 0 15 0 a7.5 7.5 0 1 0 -15 0zM941.13 144.02 a7.5 7.5 0 1 0 15 0 a7.5 7.5 0 1 0 -15 0zM876.18 106.52 a7.5 7.5 0 1 0 15 0 a7.5 7.5 0 1 0 -15 0zM876.18 31.52 a7.5 7.5 0 1 0 15 0 a7.5 7.5 0 1 0 -15 0zM1265.9 331.52 a7.5 7.5 0 1 0 15 0 a7.5 7.5 0 1 0 -15 0zM1330.85 369.02 a7.5 7.5 0 1 0 15 0 a7.5 7.5 0 1 0 -15 0zM1330.85 444.02 a7.5 7.5 0 1 0 15 0 a7.5 7.5 0 1 0 -15 0zM1265.9 481.52 a7.5 7.5 0 1 0 15 0 a7.5 7.5 0 1 0 -15 0zM1200.95 444.02 a7.5 7.5 0 1 0 15 0 a7.5 7.5 0 1 0 -15 0zM1200.95 369.02 a7.5 7.5 0 1 0 15 0 a7.5 7.5 0 1 0 -15 0zM1525.72 331.52 a7.5 7.5 0 1 0 15 0 a7.5 7.5 0 1 0 -15 0zM1590.67 369.02 a7.5 7.5 0 1 0 15 0 a7.5 7.5 0 1 0 -15 0zM1590.67 444.02 a7.5 7.5 0 1 0 15 0 a7.5 7.5 0 1 0 -15 0zM1525.72 481.52 a7.5 7.5 0 1 0 15 0 a7.5 7.5 0 1 0 -15 0zM1460.76 444.02 a7.5 7.5 0 1 0 15 0 a7.5 7.5 0 1 0 -15 0zM1460.76 369.02 a7.5 7.5 0 1 0 15 0 a7.5 7.5 0 1 0 -15 0z" fill="#03305d"></path><path d="M140.44 176.94L183.74 201.94L183.74 251.94L140.44 276.94L97.14 251.94L97.14 201.94zM183.74 251.94L227.04 276.94L227.04 326.94L183.74 351.94L140.44 326.94L140.44 276.94zM270.34 -48.06L313.65 -23.06L313.65 26.94L270.34 51.94L227.04 26.94L227.04 -23.06zM313.65 26.94L356.95 51.94L356.95 101.94L313.65 126.94L270.34 101.94L270.34 51.94zM313.65 476.94L356.95 501.94L356.95 551.94L313.65 576.94L270.34 551.94L270.34 501.94zM486.86 26.94L530.16 51.94L530.16 101.94L486.86 126.94L443.56 101.94L443.56 51.94zM486.86 176.94L530.16 201.94L530.16 251.94L486.86 276.94L443.56 251.94L443.56 201.94zM530.16 -48.06L573.46 -23.06L573.46 26.94L530.16 51.94L486.86 26.94L486.86 -23.06zM573.46 26.94L616.76 51.94L616.76 101.94L573.46 126.94L530.16 101.94L530.16 51.94zM573.46 326.94L616.76 351.94L616.76 401.94L573.46 426.94L530.16 401.94L530.16 351.94zM660.07 26.94L703.37 51.94L703.37 101.94L660.07 126.94L616.76 101.94L616.76 51.94zM660.07 326.94L703.37 351.94L703.37 401.94L660.07 426.94L616.76 401.94L616.76 351.94zM703.37 401.94L746.67 426.94L746.67 476.94L703.37 501.94L660.07 476.94L660.07 426.94zM833.28 26.94L876.58 51.94L876.58 101.94L833.28 126.94L789.98 101.94L789.98 51.94zM919.88 326.94L963.19 351.94L963.19 401.94L919.88 426.94L876.58 401.94L876.58 351.94zM876.58 401.94L919.88 426.94L919.88 476.94L876.58 501.94L833.28 476.94L833.28 426.94zM963.19 -48.06L1006.49 -23.06L1006.49 26.94L963.19 51.94L919.88 26.94L919.88 -23.06zM1006.49 176.94L1049.79 201.94L1049.79 251.94L1006.49 276.94L963.19 251.94L963.19 201.94zM963.19 251.94L1006.49 276.94L1006.49 326.94L963.19 351.94L919.88 326.94L919.88 276.94zM1223 -48.06L1266.3 -23.06L1266.3 26.94L1223 51.94L1179.7 26.94L1179.7 -23.06zM1309.61 251.94L1352.91 276.94L1352.91 326.94L1309.61 351.94L1266.3 326.94L1266.3 276.94zM1396.21 -48.06L1439.51 -23.06L1439.51 26.94L1396.21 51.94L1352.91 26.94L1352.91 -23.06zM1439.51 326.94L1482.82 351.94L1482.82 401.94L1439.51 426.94L1396.21 401.94L1396.21 351.94z" stroke="rgba(6, 80, 156, 0.93)" stroke-width="2"></path></g><defs><mask id="SvgjsMask1000"><rect width="1440" height="560" fill="#ffffff"></rect></mask></defs></svg>