<svg xmlns="http://www.w3.org/2000/svg" version="1.1" xmlns:xlink="http://www.w3.org/1999/xlink" xmlns:svgjs="http://svgjs.dev/svgjs" width="1540" height="2600" preserveAspectRatio="none" viewBox="0 0 1440 2500"><g mask="url(&quot;#SvgjsMask2811&quot;)" fill="none"><rect width="1440" height="2500" x="0" y="0" fill="url(&quot;#SvgjsLinearGradient2812&quot;)"></rect><path d="M28 2500L2528 0L2825 0L325 2500z" fill="url(&quot;#SvgjsLinearGradient2813&quot;)"></path><path d="M498.20000000000005 2500L2998.2 0L3566.7 0L1066.7 2500z" fill="url(&quot;#SvgjsLinearGradient2813&quot;)"></path><path d="M1378 2500L-1122 0L-1294.5 0L1205.5 2500z" fill="url(&quot;#SvgjsLinearGradient2814&quot;)"></path><path d="M880.8 2500L-1619.2 0L-2160.7 0L339.29999999999995 2500z" fill="url(&quot;#SvgjsLinearGradient2814&quot;)"></path><path d="M78.1407306680835 2500L1440 1138.1407306680835L1440 2500z" fill="url(&quot;#SvgjsLinearGradient2813&quot;)"></path><path d="M0 2500L1361.8592693319165 2500L 0 1138.1407306680835z" fill="url(&quot;#SvgjsLinearGradient2814&quot;)"></path></g><defs><mask id="SvgjsMask2811"><rect width="1440" height="2500" fill="#ffffff"></rect></mask><linearGradient x1="50%" y1="100%" x2="50%" y2="0%" gradientUnits="userSpaceOnUse" id="SvgjsLinearGradient2812"><stop stop-color="rgba(14, 42, 71, 1)" offset="0"></stop><stop stop-color="rgba(255, 251, 251, 1)" offset="0"></stop></linearGradient><linearGradient x1="0%" y1="100%" x2="100%" y2="0%" id="SvgjsLinearGradient2813"><stop stop-color="rgba(255, 4, 4, 0.2)" offset="0"></stop><stop stop-opacity="0" stop-color="rgba(255, 4, 4, 0.2)" offset="0.66"></stop></linearGradient><linearGradient x1="100%" y1="100%" x2="0%" y2="0%" id="SvgjsLinearGradient2814"><stop stop-color="rgba(255, 4, 4, 0.2)" offset="0"></stop><stop stop-opacity="0" stop-color="rgba(255, 4, 4, 0.2)" offset="0.66"></stop></linearGradient></defs></svg>