<svg xmlns="http://www.w3.org/2000/svg" version="1.1" xmlns:xlink="http://www.w3.org/1999/xlink" xmlns:svgjs="http://svgjs.dev/svgjs" width="1520" height="100" preserveAspectRatio="none" viewBox="0 0 1440 250"><g mask="url(&quot;#SvgjsMask2547&quot;)" fill="none"><rect width="1440" height="250" x="0" y="0" fill="n"></rect><path d="M47 250L297 0L585 0L335 250z" fill="url(&quot;#SvgjsLinearGradient2549&quot;)"></path><path d="M245.60000000000002 250L495.6 0L759.6 0L509.6 250z" fill="url(&quot;#SvgjsLinearGradient2549&quot;)"></path><path d="M494.20000000000005 250L744.2 0L834.2 0L584.2 250z" fill="url(&quot;#SvgjsLinearGradient2549&quot;)"></path><path d="M732.8000000000001 250L982.8000000000001 0L1218.3000000000002 0L968.3000000000001 250z" fill="url(&quot;#SvgjsLinearGradient2549&quot;)"></path><path d="M1420 250L1170 0L922.5 0L1172.5 250z" fill="url(&quot;#SvgjsLinearGradient2550&quot;)"></path><path d="M1174.4 250L924.4000000000001 0L807.4000000000001 0L1057.4 250z" fill="url(&quot;#SvgjsLinearGradient2550&quot;)"></path><path d="M957.8 250L707.8 0L490.29999999999995 0L740.3 250z" fill="url(&quot;#SvgjsLinearGradient2550&quot;)"></path><path d="M687.1999999999999 250L437.19999999999993 0L207.69999999999993 0L457.69999999999993 250z" fill="url(&quot;#SvgjsLinearGradient2550&quot;)"></path><path d="M1198.4093715833606 250L1440 8.409371583360581L1440 250z" fill="url(&quot;#SvgjsLinearGradient2549&quot;)"></path><path d="M0 250L241.59062841663942 250L 0 8.409371583360581z" fill="url(&quot;#SvgjsLinearGradient2550&quot;)"></path></g><defs><mask id="SvgjsMask2547"><rect width="1440" height="250" fill="#ffffff"></rect></mask><linearGradient x1="20.66%" y1="219%" x2="79.34%" y2="-119%" gradientUnits="userSpaceOnUse" id="SvgjsLinearGradient2548"><stop stop-color="rgba(14, 42, 71, 1)" offset="0"></stop><stop stop-color="rgba(244, 244, 244, 1)" offset="0"></stop></linearGradient><linearGradient x1="0%" y1="100%" x2="100%" y2="0%" id="SvgjsLinearGradient2549"><stop stop-color="rgba(255, 4, 4, 0.2)" offset="0"></stop><stop stop-opacity="0" stop-color="rgba(255, 4, 4, 0.2)" offset="0.66"></stop></linearGradient><linearGradient x1="100%" y1="100%" x2="0%" y2="0%" id="SvgjsLinearGradient2550"><stop stop-color="rgba(255, 4, 4, 0.2)" offset="0"></stop><stop stop-opacity="0" stop-color="rgba(255, 4, 4, 0.2)" offset="0.66"></stop></linearGradient></defs></svg>