<svg xmlns="http://www.w3.org/2000/svg" version="1.1" xmlns:xlink="http://www.w3.org/1999/xlink" xmlns:svgjs="http://svgjs.dev/svgjs" width="1440" height="560" preserveAspectRatio="none" viewBox="0 0 1440 560"><g mask="url(&quot;#SvgjsMask1005&quot;)" fill="none"><rect width="1440" height="560" x="0" y="0" fill="rgba(244, 86, 65, 1)"></rect><path d="M0,385.909C74.971,392.961,161.242,387.517,215.455,335.255C268.987,283.65,252.685,195.952,271.635,124.052C286.819,66.442,310.646,13.952,315.782,-45.403C322.215,-119.755,357.568,-211.279,305.254,-264.504C252.056,-318.629,155.213,-259.301,82.903,-282.341C7.804,-306.269,-38.546,-404.402,-117.187,-399.104C-194.857,-393.872,-255.659,-323.154,-296.353,-256.791C-334.074,-195.277,-321.102,-119.056,-332.597,-47.82C-344.345,24.979,-392.692,98.33,-364.665,166.537C-336.564,234.924,-254.248,258.92,-190.892,297.033C-129.504,333.962,-71.325,379.2,0,385.909" fill="#ea270e"></path><path d="M1440 1116.933C1543.133 1127.9009999999998 1627.717 1043.353 1719.049 994.2080000000001 1818.7440000000001 940.563 1948.569 916.605 1999.8600000000001 815.679 2051.318 714.425 1999.199 594.276 1979.108 482.488 1959.732 374.679 1947.662 264.305 1884.658 174.702 1817.724 79.51100000000002 1725.368 0.9429999999999836 1614.863-35.528999999999996 1502.459-72.62800000000004 1377.693-71.106 1267.009-29.15300000000002 1160.402 11.254999999999995 1063.151 88.428 1015.0830000000001 191.80700000000002 970.899 286.832 1016.332 395.08000000000004 1021.076 499.76800000000003 1024.828 582.57 1009.259 665.696 1040.046 742.653 1071.751 821.903 1134.33 880.331 1196.654 938.654 1271.592 1008.781 1337.942 1106.08 1440 1116.933" fill="#f78a7b"></path></g><defs><mask id="SvgjsMask1005"><rect width="1440" height="560" fill="#ffffff"></rect></mask></defs></svg>