<svg xmlns="http://www.w3.org/2000/svg" version="1.1" xmlns:xlink="http://www.w3.org/1999/xlink" xmlns:svgjs="http://svgjs.dev/svgjs" width="560" height="560" preserveAspectRatio="none" viewBox="0 0 1440 560"><g mask="url(&quot;#SvgjsMask1049&quot;)" fill="none"><rect width="1440" height="560" x="0" y="0" fill="rgba(244, 86, 65, 1)"></rect><path d="M0,357.519C78.928,358.43,160.994,395.487,231.978,360.965C304.98,325.462,344.769,246.689,379.121,173.139C413.704,99.095,425.997,19.912,429.404,-61.739C433.474,-159.303,459.542,-269.295,400.835,-347.326C341.905,-425.653,231.229,-446.406,133.58,-454.931C46.631,-462.522,-35.548,-428.034,-115.213,-392.378C-185.878,-360.75,-241.996,-311.033,-300.701,-260.559C-369.864,-201.094,-465.933,-158.471,-489.69,-70.407C-513.786,18.912,-471.464,114.357,-423.121,193.233C-378.062,266.75,-308.941,324.437,-228.56,355.647C-156.068,383.793,-77.759,356.621,0,357.519" fill="#ea270e"></path><path d="M1440 1267.702C1571.93 1284.1799999999998 1710.8029999999999 1221.704 1804.8609999999999 1127.7350000000001 1893.0430000000001 1039.636 1904.56 904.781 1926.144 782.014 1943.27 684.602 1916.564 590.363 1916.724 491.457 1916.9189999999999 371.099 1988.156 241.623 1927.187 137.85000000000002 1865.949 33.61900000000003 1725.659 15.212999999999965 1612.279-26.727999999999952 1490.627-71.72799999999995 1362.875-161.71299999999997 1241.578-115.76499999999999 1119.817-69.64200000000005 1077.57 79.75900000000001 1021.2529999999999 197.154 976.982 289.439 975.5160000000001 390.305 951.119 489.71 923.409 602.615 832.475 710.514 868.102 821.177 903.86 932.2470000000001 1037.391 971.554 1129.362 1043.363 1232.117 1123.592 1310.6390000000001 1251.5439999999999 1440 1267.702" fill="#f78a7b"></path></g><defs><mask id="SvgjsMask1049"><rect width="1440" height="560" fill="#ffffff"></rect></mask></defs></svg>