<svg xmlns="http://www.w3.org/2000/svg" version="1.1" xmlns:xlink="http://www.w3.org/1999/xlink" xmlns:svgjs="http://svgjs.dev/svgjs" width="1550" height="580" preserveAspectRatio="none" viewBox="0 0 1440 560"><g mask="url(&quot;#SvgjsMask1069&quot;)" fill="none"><rect width="1440" height="560" x="0" y="0" fill="rgba(244, 86, 65, 1)"></rect><path d="M0,439.672C93.205,427.382,186.471,457.92,276.143,429.686C386.183,395.039,530.823,368.808,569.863,260.248C609.641,149.636,472.137,50.866,454.146,-65.296C436.467,-179.445,537.736,-313.331,466.896,-404.568C396.96,-494.64,251.976,-460.213,138.53,-471.789C45.293,-481.303,-44.619,-482.647,-136.882,-466.178C-239.435,-447.872,-358.262,-448.258,-427.806,-370.696C-497.469,-293.002,-495.237,-174.953,-491.506,-70.668C-488.219,21.204,-432.927,97.82,-407.878,186.272C-377.018,295.242,-423.477,449.485,-327.276,509.251C-230.581,569.324,-112.859,454.553,0,439.672" fill="#ea270e"></path><path d="M1440 1014.5129999999999C1542.063 1026.482 1650.24 1076.3139999999999 1741.676 1029.416 1834.054 982.0350000000001 1873.436 871.702 1908.767 774.079 1942.001 682.251 1949.499 585.389 1937.4479999999999 488.478 1925.214 390.089 1894.027 296.712 1839.141 214.14299999999997 1778.535 122.96800000000002 1714.4940000000001 11.970000000000027 1606.978-8.676000000000045 1499.386-29.33699999999999 1412.312 77.14999999999998 1308.528 112.24799999999999 1210.476 145.40699999999998 1093.451 124.267 1014.822 191.58100000000002 932.63 261.945 880.567 371.23699999999997 879.625 479.43 878.718 583.567 954.924 667.973 1009.904 756.418 1058.125 833.99 1102.291 916.621 1180.6100000000001 963.619 1257.724 1009.894 1350.679 1004.038 1440 1014.5129999999999" fill="#f78a7b"></path></g><defs><mask id="SvgjsMask1069"><rect width="1440" height="560" fill="#ffffff"></rect></mask></defs></svg>