<?xml version="1.0" encoding="UTF-8"?>
<svg xmlns="http://www.w3.org/2000/svg" xmlns:xlink="http://www.w3.org/1999/xlink" width="2400" height="2400" viewBox="0 0 2400 2400">
<rect x="-240" y="-240" width="2880" height="2880" fill="rgb(100%, 100%, 100%)" fill-opacity="1"/>
<path fill-rule="evenodd" fill="rgb(22.75238%, 20.776367%, 45.872498%)" fill-opacity="1" d="M 502.214844 1174.578125 C 498.875 1172.160156 494.605469 1171.269531 489.238281 1172.601562 C 486.53125 1173.28125 481.675781 1176.839844 477.371094 1180.570312 C 463.214844 1192.859375 447.707031 1212.128906 431.339844 1222.621094 C 423.125 1227.890625 407.480469 1238.578125 399.339844 1250.550781 C 394.648438 1257.449219 392.449219 1264.78125 395.609375 1271.75 C 399.175781 1279.609375 407.199219 1277.539062 414.292969 1274.921875 C 427.84375 1269.929688 439.023438 1266.191406 450.546875 1262.820312 C 472.027344 1256.550781 487.847656 1254.96875 507.863281 1245.300781 L 524.902344 1239.519531 C 518.460938 1216.679688 524.953125 1191.03125 502.214844 1174.578125 "/>
<path fill-rule="evenodd" fill="rgb(100%, 84.764099%, 38.035583%)" fill-opacity="1" d="M 781.269531 1136.378906 C 751.859375 1135.46875 694.289062 1160.570312 676.703125 1207.121094 C 663.742188 1241.449219 659.949219 1297.71875 657.0625 1326.988281 C 652.46875 1350.699219 629.890625 1435.917969 659.734375 1455.226562 C 709.878906 1487.667969 764.773438 1366.660156 782.699219 1319.050781 L 796.445312 1291.800781 C 806.699219 1271.230469 854.160156 1138.648438 781.269531 1136.378906 "/>
<path fill-rule="evenodd" fill="rgb(100%, 84.764099%, 38.035583%)" fill-opacity="1" d="M 659.734375 1455.226562 C 625.777344 1416.496094 585.105469 1367.828125 553.269531 1329.070312 C 541.847656 1315.160156 530.171875 1301.371094 517.960938 1287.789062 L 491.710938 1256.769531 C 497.257812 1236.320312 508.855469 1225.820312 527.550781 1228.210938 C 599.9375 1299.230469 656.28125 1317.019531 683.429688 1371.488281 C 688.566406 1381.789062 693.273438 1385.859375 700.949219 1394.421875 C 700.949219 1394.421875 667.878906 1414.402344 664.570312 1422.269531 C 661.261719 1430.144531 662.019531 1434.398438 661.859375 1436.800781 C 661.699219 1439.203125 659.734375 1455.226562 659.734375 1455.226562 "/>
<path fill-rule="evenodd" fill="rgb(99.609375%, 89.0625%, 78.514099%)" fill-opacity="1" d="M 535.097656 982.898438 L 521.027344 954.289062 C 508.914062 950.78125 504.863281 948.5 498.203125 937.78125 L 494.035156 933.070312 C 488.402344 928.070312 481.308594 923.300781 476.027344 917.628906 C 474.027344 915.488281 472.285156 913.210938 470.984375 910.75 L 469.535156 904.070312 L 469.394531 902.828125 L 470.058594 901.621094 L 468.828125 899.25 L 462.433594 892.230469 L 459.746094 887.859375 L 461.273438 884.03125 L 464.414062 882.988281 L 467.03125 883.761719 L 467.976562 884.289062 L 469.800781 883.800781 L 471.4375 884.179688 L 472.855469 885.03125 L 473.628906 883.921875 L 476.785156 883.839844 L 482.714844 886.519531 L 496.035156 893.421875 L 504.191406 897.75 L 505.328125 898.820312 L 510.902344 900.171875 L 523.859375 904.128906 L 527.269531 904.078125 L 530.855469 903.621094 L 527.71875 901.289062 C 526.246094 899.96875 525.089844 898.960938 524.15625 898.089844 C 521.113281 895.25 520.40625 893.839844 518.636719 887.820312 C 517.519531 884.050781 517.652344 881.480469 519.914062 880.019531 C 521.28125 879.128906 523.425781 878.660156 526.546875 878.558594 L 530.40625 887.320312 C 530.40625 887.320312 534.773438 892.019531 535.539062 892.871094 C 536.304688 893.71875 543.664062 899.511719 543.664062 899.511719 L 546.289062 906.449219 L 548.636719 927.378906 L 549.058594 939.910156 L 562.039062 967.390625 L 535.097656 982.898438 "/>
<path fill-rule="evenodd" fill="rgb(24.705505%, 10.984802%, 18.821716%)" fill-opacity="1" d="M 860.6875 939.640625 C 776.648438 941.609375 774.488281 927.808594 741.195312 938.921875 C 597.941406 897.851562 696.597656 820.539062 705.425781 860.089844 C 707.496094 881.609375 724.03125 864.648438 734.007812 842.828125 C 749.488281 808.96875 739.289062 796.601562 755.816406 773.621094 C 781.8125 737.46875 816.566406 733.328125 850.820312 763.570312 C 866.121094 777.199219 870.878906 791.21875 875.546875 810.730469 C 876.734375 815.691406 874.136719 821.238281 871.699219 826.351562 C 861.9375 846.78125 894.585938 893.589844 895.769531 871.96875 C 897.109375 847.359375 923.394531 870.621094 929.253906 879.320312 C 944.964844 902.660156 943.851562 936.480469 860.6875 939.640625 "/>
<path fill-rule="evenodd" fill="rgb(98.826599%, 89.0625%, 76.951599%)" fill-opacity="1" d="M 1106.128906 1038.898438 L 1130.851562 1018.769531 C 1143.328125 1020.628906 1147.960938 1020.25 1158.480469 1013.289062 L 1164.238281 1010.738281 C 1171.441406 1008.550781 1179.878906 1007.171875 1187.039062 1004.230469 C 1189.761719 1003.109375 1192.289062 1001.769531 1194.5 1000.070312 L 1198.601562 994.609375 L 1199.25 993.539062 L 1199.148438 992.160156 L 1201.25 990.519531 L 1209.988281 986.808594 L 1214.261719 983.960938 L 1214.46875 979.839844 L 1212.050781 977.589844 L 1209.351562 977.191406 L 1208.269531 977.28125 L 1206.808594 976.078125 L 1205.171875 975.738281 L 1203.519531 975.921875 L 1203.289062 974.589844 L 1200.449219 973.199219 L 1193.949219 973.160156 L 1178.960938 973.878906 L 1169.738281 974.398438 L 1168.261719 974.898438 L 1162.628906 973.800781 L 1149.199219 972 L 1146.121094 970.53125 L 1143.058594 968.621094 L 1146.878906 967.808594 C 1148.769531 967.21875 1150.238281 966.789062 1151.449219 966.390625 C 1155.398438 965.078125 1156.640625 964.089844 1160.75 959.359375 C 1163.339844 956.390625 1164.289062 954 1162.851562 951.730469 C 1161.96875 950.359375 1160.21875 949.03125 1157.429688 947.640625 L 1150.269531 953.988281 C 1150.269531 953.988281 1144.339844 956.441406 1143.289062 956.890625 C 1142.238281 957.351562 1133.128906 959.53125 1133.128906 959.53125 L 1127.851562 964.75 L 1116.988281 982.789062 L 1111.378906 994 L 1088.109375 1013.570312 L 1106.128906 1038.898438 "/>
<path fill-rule="evenodd" fill="rgb(78.125%, 16.479492%, 27.830505%)" fill-opacity="1" d="M 933.007812 980.039062 L 991.160156 1080.820312 L 994.398438 1117.941406 C 965.449219 1160.230469 945.441406 1127.449219 923.214844 1095.710938 C 898.753906 1060.789062 865.839844 1017.441406 846.53125 980.671875 C 803.011719 897.789062 878.628906 872.691406 933.007812 980.039062 "/>
<path fill-rule="evenodd" fill="rgb(78.125%, 16.479492%, 27.830505%)" fill-opacity="1" d="M 950.5625 1092.878906 C 926.792969 1209.539062 1092.71875 1062.179688 1134.398438 1029.988281 L 1110.390625 990.199219 L 1005.019531 1051.140625 L 964.257812 1073.03125 L 950.5625 1092.878906 "/>
<path fill-rule="evenodd" fill="rgb(3.529358%, 7.446289%, 21.580505%)" fill-opacity="1" d="M 1775.011719 1696.261719 C 1770.101562 1699.363281 1749.320312 1719 1749.320312 1719 C 1730.921875 1732.105469 1713.621094 1745.203125 1691.53125 1751.011719 C 1686.789062 1752.253906 1682.109375 1753.507812 1678.128906 1754.863281 C 1671.308594 1757.1875 1663.878906 1766.597656 1672.410156 1773.277344 C 1690.199219 1787.203125 1736.890625 1773.734375 1758.398438 1770.949219 C 1765.039062 1770.09375 1771.730469 1769.835938 1778.378906 1769.277344 C 1788.628906 1768.421875 1802.238281 1768.253906 1811.660156 1764.410156 C 1825.980469 1758.5625 1821.539062 1749.992188 1812.699219 1723.820312 C 1811.351562 1719.828125 1798.011719 1686.820312 1799.511719 1681.929688 L 1793.019531 1700.683594 L 1775.011719 1696.261719 "/>
<path fill-rule="evenodd" fill="rgb(98.826599%, 89.0625%, 76.951599%)" fill-opacity="1" d="M 1333.101562 988.328125 L 1311.980469 981.148438 L 1299.339844 972.960938 L 1286.53125 963.179688 L 1279.5 959.96875 L 1270.28125 957.589844 L 1265.261719 961.960938 L 1262.921875 965.75 L 1255.53125 962.679688 L 1247.488281 965.679688 L 1244.058594 976.539062 L 1240.671875 985.300781 L 1241.210938 991.761719 C 1241.210938 991.761719 1246.378906 1001.699219 1247.238281 1003.460938 C 1248.109375 1005.21875 1254.320312 1018.511719 1254.320312 1018.511719 L 1257.398438 1021.730469 L 1274.71875 1024.628906 L 1325.609375 1027.230469 L 1329.179688 1030.828125 C 1342.121094 1017.789062 1340.660156 1005.121094 1333.101562 988.328125 "/>
<path fill-rule="evenodd" fill="rgb(98.826599%, 89.0625%, 76.951599%)" fill-opacity="1" d="M 1949.011719 937.339844 L 1958.039062 906.28125 C 1969.53125 900.640625 1973.171875 897.648438 1977.949219 885.769531 L 1981.28125 880.320312 C 1986.039062 874.339844 1992.289062 868.320312 1996.570312 861.730469 C 1998.191406 859.238281 1999.53125 856.660156 2000.398438 853.96875 L 2000.671875 847.039062 L 2000.589844 845.769531 L 1999.71875 844.679688 L 2000.53125 842.101562 L 2005.691406 833.960938 L 2007.601562 829.121094 L 2005.398438 825.558594 L 2002.078125 825.070312 L 1999.601562 826.289062 L 1998.75 826.988281 L 1996.839844 826.828125 L 1995.269531 827.5 L 1994 828.601562 L 1993.039062 827.621094 L 1989.859375 828.089844 L 1984.410156 831.808594 L 1972.308594 841.058594 L 1964.921875 846.808594 L 1963.980469 848.078125 L 1958.640625 850.410156 L 1946.390625 856.648438 L 1942.96875 857.199219 L 1939.308594 857.371094 L 1942.03125 854.488281 C 1943.269531 852.910156 1944.25 851.699219 1945.03125 850.671875 C 1947.570312 847.289062 1948.03125 845.761719 1948.738281 839.429688 C 1949.191406 835.460938 1948.609375 832.921875 1946.089844 831.859375 C 1944.570312 831.210938 1942.339844 831.109375 1939.210938 831.570312 L 1936.890625 841 C 1936.890625 841 1933.351562 846.46875 1932.738281 847.449219 C 1932.121094 848.429688 1925.78125 855.511719 1925.78125 855.511719 L 1924.378906 862.910156 L 1925.71875 884.238281 L 1927.5 896.839844 L 1919.359375 926.589844 L 1949.011719 937.339844 "/>
<path fill-rule="evenodd" fill="rgb(93.359375%, 29.026794%, 28.637695%)" fill-opacity="1" d="M 1576.160156 926.351562 L 1490.839844 1007.960938 L 1477.128906 1043.199219 C 1493.289062 1092.628906 1522.109375 1066.398438 1552.789062 1041.808594 C 1586.550781 1014.75 1630.941406 981.898438 1660.210938 951.578125 C 1726.191406 883.230469 1659.671875 837.269531 1576.160156 926.351562 "/>
<path fill-rule="evenodd" fill="rgb(93.359375%, 29.026794%, 28.637695%)" fill-opacity="1" d="M 1511 1021.839844 C 1575.671875 1123.878906 1365.109375 1044.058594 1313.960938 1028.589844 L 1322.359375 982.179688 L 1444.28125 1001.921875 L 1490.839844 1007.960938 L 1511 1021.839844 "/>
<path fill-rule="evenodd" fill="rgb(21.946716%, 46.679688%, 78.90625%)" fill-opacity="1" d="M 1679.339844 1095.660156 C 1893.980469 1181.679688 1709.261719 1297.839844 1560.191406 1405.902344 C 1538.390625 1423.628906 1490.300781 1480.882812 1464.121094 1452.972656 C 1428.550781 1415.0625 1499.601562 1345.929688 1532.859375 1299.75 L 1554.789062 1269.808594 L 1679.339844 1095.660156 "/>
<path fill-rule="evenodd" fill="rgb(21.946716%, 46.679688%, 78.90625%)" fill-opacity="1" d="M 1690.890625 1119.21875 C 1923.390625 1095.109375 1812.851562 1285.988281 1730.378906 1452.835938 C 1719.21875 1478.957031 1710.75 1523.242188 1674.191406 1510.601562 C 1624.53125 1493.4375 1647.949219 1427.71875 1655.949219 1370.75 L 1661.46875 1333.640625 L 1690.890625 1119.21875 "/>
<path fill-rule="evenodd" fill="rgb(3.529358%, 7.446289%, 21.580505%)" fill-opacity="1" d="M 1543.800781 1680.878906 C 1538.738281 1683.71875 1516.941406 1702.230469 1516.941406 1702.230469 C 1497.878906 1714.347656 1479.910156 1726.511719 1457.539062 1731.144531 C 1452.738281 1732.136719 1448 1733.140625 1443.960938 1734.285156 C 1437.019531 1736.246094 1429.101562 1745.25 1437.269531 1752.371094 C 1454.308594 1767.21875 1501.640625 1756.230469 1523.269531 1754.589844 C 1529.941406 1754.082031 1536.628906 1754.179688 1543.308594 1753.972656 C 1553.578125 1753.660156 1567.191406 1754.210938 1576.800781 1750.871094 C 1591.398438 1745.789062 1587.421875 1736.992188 1579.980469 1710.394531 C 1578.851562 1706.335938 1567.269531 1672.667969 1569.03125 1667.867188 L 1561.550781 1686.246094 L 1543.800781 1680.878906 "/>
<path fill-rule="evenodd" fill="rgb(21.946716%, 46.679688%, 78.90625%)" fill-opacity="1" d="M 1454.441406 1429.828125 C 1467.851562 1487.082031 1484.871094 1541.175781 1499.730469 1596.480469 C 1505.058594 1616.320312 1510.101562 1636.320312 1514.609375 1656.679688 L 1521.699219 1686.886719 C 1552.078125 1706.617188 1573.5 1708.167969 1581.800781 1686.4375 C 1574.199219 1631.410156 1550.78125 1471.527344 1547.058594 1416.105469 L 1503.550781 1410.816406 C 1503.550781 1410.816406 1496.601562 1433.394531 1487.101562 1431.238281 C 1477.589844 1429.082031 1474.140625 1425.554688 1471.808594 1424.109375 C 1469.46875 1422.660156 1454.441406 1429.828125 1454.441406 1429.828125 "/>
<path fill-rule="evenodd" fill="rgb(93.359375%, 29.026794%, 28.637695%)" fill-opacity="1" d="M 1705.21875 878.238281 C 1632.648438 873.640625 1600.121094 884.261719 1590.960938 953.308594 C 1577.789062 1052.660156 1648.640625 1010.808594 1625.300781 1165.921875 C 1675.589844 1227.171875 1753.628906 1225.179688 1833.449219 1175.589844 C 1812.199219 1009.660156 1871.828125 828.199219 1705.21875 878.238281 "/>
<path fill-rule="evenodd" fill="rgb(21.946716%, 46.679688%, 78.90625%)" fill-opacity="1" d="M 1647.859375 1486.367188 C 1672.320312 1535.046875 1690.710938 1586.441406 1716.050781 1633.054688 C 1725.140625 1649.78125 1734.011719 1666.707031 1742.46875 1684.074219 L 1755.390625 1709.757812 C 1787.019531 1720.96875 1806.648438 1717.734375 1809.429688 1696.359375 C 1790.691406 1648.429688 1743.671875 1503.109375 1728.339844 1453.980469 L 1688 1458.621094 C 1688 1458.621094 1686.621094 1480.460938 1677.589844 1480.574219 C 1668.558594 1480.6875 1664.691406 1478.253906 1662.269531 1477.453125 C 1659.851562 1476.65625 1647.859375 1486.367188 1647.859375 1486.367188 "/>
<path fill-rule="evenodd" fill="rgb(94.921875%, 74.414062%, 59.959412%)" fill-opacity="1" d="M 1701.128906 835.839844 L 1710.230469 877.828125 L 1672.921875 912.808594 L 1637.609375 891.25 L 1631.351562 844.601562 L 1701.128906 835.839844 "/>
<path fill-rule="evenodd" fill="rgb(94.921875%, 74.414062%, 59.959412%)" fill-opacity="1" d="M 1666.449219 914.210938 C 1680.160156 914.53125 1696.699219 905.578125 1710.230469 877.828125 L 1673.230469 880.800781 L 1645.75 891.558594 L 1637.609375 891.25 C 1644.511719 904.171875 1649.238281 913.808594 1666.449219 914.210938 "/>
<path fill-rule="evenodd" fill="rgb(24.705505%, 10.984802%, 18.821716%)" fill-opacity="1" d="M 1610.71875 769.421875 C 1601.660156 785.71875 1607.339844 846.421875 1613.210938 826.269531 L 1619.410156 804.980469 L 1620.910156 780.699219 L 1621.808594 765.859375 L 1610.71875 769.421875 "/>
<path fill-rule="evenodd" fill="rgb(98.826599%, 89.0625%, 76.951599%)" fill-opacity="1" d="M 1714.738281 826.808594 C 1711.511719 840.140625 1708.691406 855.488281 1701.691406 867.070312 C 1689.160156 887.820312 1666.449219 898.859375 1640.238281 885.03125 C 1639.449219 884.609375 1638.691406 884.179688 1637.960938 883.71875 C 1621.210938 873.121094 1616.121094 851.339844 1615.28125 836.71875 C 1615.21875 835.578125 1614.941406 834.5 1614.761719 833.441406 C 1611.53125 810.96875 1609.941406 794.679688 1618.128906 778.230469 C 1632.460938 749.449219 1686.621094 733.449219 1707.460938 770.269531 C 1718.269531 789.378906 1715.269531 805.980469 1714.738281 826.808594 "/>
<path fill-rule="evenodd" fill="rgb(24.705505%, 10.984802%, 18.821716%)" fill-opacity="1" d="M 1715.339844 812.050781 C 1715.691406 803.191406 1715.710938 794.871094 1713.78125 786.441406 L 1719.449219 790.609375 L 1720.601562 805.101562 C 1719.148438 806.21875 1717.609375 808.070312 1716.03125 810.839844 C 1715.800781 811.230469 1715.570312 811.640625 1715.339844 812.050781 "/>
<path fill-rule="evenodd" fill="rgb(24.705505%, 10.984802%, 18.821716%)" fill-opacity="1" d="M 1712.121094 786.890625 C 1695.390625 758.429688 1670.21875 777.570312 1642.871094 780.960938 C 1621.78125 792.03125 1594.328125 775.621094 1594.359375 750.710938 C 1594.398438 717.648438 1675 706.648438 1646.039062 723.339844 C 1637.128906 728.480469 1639.300781 729.320312 1677.058594 734.011719 C 1719.78125 739.320312 1727.898438 762.28125 1720.601562 805.101562 L 1712.121094 786.890625 "/>
<path fill-rule="evenodd" fill="rgb(24.705505%, 10.984802%, 18.821716%)" fill-opacity="1" d="M 1709.191406 773.550781 C 1709.621094 773.328125 1697.011719 802.308594 1715.339844 812.050781 L 1716.359375 808.128906 L 1716.621094 788.53125 L 1709.191406 773.550781 "/>
<path fill-rule="evenodd" fill="rgb(98.826599%, 89.0625%, 76.951599%)" fill-opacity="1" d="M 1713.601562 832.769531 L 1705.28125 834.898438 L 1707.949219 826.078125 C 1708.761719 824.558594 1712.71875 816.628906 1716.03125 810.839844 C 1728.589844 788.859375 1738.929688 824.320312 1713.601562 832.769531 "/>
<path fill-rule="evenodd" fill="rgb(98.826599%, 89.0625%, 76.951599%)" fill-opacity="1" d="M 1617.691406 834.488281 L 1614.539062 820.300781 C 1610.519531 809.890625 1602.570312 808.121094 1604.089844 820.171875 C 1606.300781 837.71875 1609.089844 835.539062 1617.910156 843.589844 L 1617.691406 834.488281 "/>
<path fill-rule="evenodd" fill="rgb(93.359375%, 29.026794%, 28.637695%)" fill-opacity="1" d="M 1841.359375 943.300781 L 1900.371094 1045.570312 L 1903.660156 1083.230469 C 1874.28125 1126.148438 1853.980469 1092.890625 1831.421875 1060.679688 C 1806.601562 1025.25 1773.210938 981.261719 1753.609375 943.949219 C 1709.449219 859.839844 1786.179688 834.378906 1841.359375 943.300781 "/>
<path fill-rule="evenodd" fill="rgb(24.705505%, 10.984802%, 18.821716%)" fill-opacity="1" d="M 1710.738281 757.558594 C 1687.609375 773.078125 1636.980469 806.710938 1608.191406 779.96875 L 1604.890625 771.011719 L 1627.550781 742.71875 L 1652.988281 745.460938 C 1652.988281 745.460938 1675.878906 748.421875 1678.359375 748.710938 C 1680.839844 749 1710.738281 757.558594 1710.738281 757.558594 "/>
<path fill-rule="evenodd" fill="rgb(24.705505%, 10.984802%, 18.821716%)" fill-opacity="1" d="M 1670.140625 755.460938 C 1678.769531 771.359375 1697.71875 805.890625 1715.46875 788.929688 L 1718.410156 782.289062 L 1711.941406 756.28125 L 1699.429688 754.589844 C 1699.429688 754.589844 1688.101562 753.46875 1686.878906 753.320312 C 1685.660156 753.179688 1670.140625 755.460938 1670.140625 755.460938 "/>
<path fill-rule="evenodd" fill="rgb(94.921875%, 74.414062%, 59.959412%)" fill-opacity="1" d="M 833.542969 886.011719 L 833.550781 926.570312 C 833.550781 926.570312 802.273438 927.710938 799.886719 927.550781 C 797.496094 927.378906 759.5625 922.289062 759.5625 922.289062 C 771.289062 903.800781 775.804688 878.679688 776.796875 850.320312 L 810.25 862.519531 L 833.542969 886.011719 "/>
<path fill-rule="evenodd" fill="rgb(98.826599%, 89.0625%, 76.951599%)" fill-opacity="1" d="M 854.304688 836.089844 C 851.871094 859.660156 852.152344 882.398438 830.183594 897.058594 C 799.996094 917.199219 769.3125 876.878906 769.328125 848.460938 C 769.332031 835.359375 767.210938 824.519531 770.699219 813.769531 C 773.417969 805.390625 778.738281 797.199219 788.425781 788.480469 C 797.972656 779.890625 808.890625 775.109375 821.148438 777.03125 C 853.820312 782.140625 851.386719 808.160156 854.304688 836.089844 "/>
<path fill-rule="evenodd" fill="rgb(98.826599%, 89.0625%, 76.951599%)" fill-opacity="1" d="M 849.652344 834.828125 C 851.164062 833.160156 852.417969 831.679688 853.480469 830.449219 C 863.0625 819.351562 862.546875 832.410156 860.710938 842.730469 C 858.9375 852.710938 856.640625 858.488281 847.285156 862.261719 L 846.292969 856.929688 C 846.292969 856.929688 848.699219 848.910156 848.789062 847.410156 C 848.882812 845.898438 849.652344 834.828125 849.652344 834.828125 "/>
<path fill-rule="evenodd" fill="rgb(98.826599%, 89.0625%, 76.951599%)" fill-opacity="1" d="M 760.496094 828.339844 C 758.355469 829.789062 756.519531 833.070312 755.335938 838.441406 C 752.921875 849.421875 758.425781 853.699219 765.652344 857.621094 C 767.789062 858.78125 770.082031 859.910156 772.363281 861.171875 L 777.714844 861 C 776.707031 853.75 772.507812 820.21875 760.496094 828.339844 "/>
<path fill-rule="evenodd" fill="rgb(24.705505%, 10.984802%, 18.821716%)" fill-opacity="1" d="M 788.871094 775.210938 C 797.984375 794.351562 835.839844 804.441406 858.898438 805.628906 L 858.714844 792.121094 L 847.21875 773.039062 C 847.21875 773.039062 840.460938 767.800781 839.597656 767.828125 C 838.730469 767.859375 825.117188 767.371094 825.117188 767.371094 L 788.871094 775.210938 "/>
<path fill-rule="evenodd" fill="rgb(100%, 84.764099%, 38.035583%)" fill-opacity="1" d="M 805.257812 1148.738281 C 781.359375 1165.910156 750.945312 1220.859375 765.316406 1268.5 C 775.910156 1303.628906 807.136719 1350.589844 822.660156 1375.578125 C 833.4375 1397.191406 867.371094 1478.558594 902.804688 1475.722656 C 962.339844 1470.957031 932.277344 1341.53125 917.535156 1292.839844 L 911.859375 1262.839844 C 907.484375 1240.28125 864.480469 1106.191406 805.257812 1148.738281 "/>
<path fill-rule="evenodd" fill="rgb(85.15625%, 19.604492%, 31.37207%)" fill-opacity="1" d="M 896.097656 946.578125 C 914.371094 978.980469 945.316406 999.238281 928.628906 1028.71875 C 864.476562 1142.050781 895.410156 1161.28125 892.613281 1202.851562 C 869.832031 1209.910156 729.621094 1242.960938 702.328125 1163.078125 C 741.019531 1122.539062 732.75 1071.128906 718.5 1001.359375 C 691.574219 869.539062 736.539062 906.601562 858.335938 908.628906 C 879.699219 908.988281 887.023438 930.488281 896.097656 946.578125 "/>
<path fill-rule="evenodd" fill="rgb(22.75238%, 20.776367%, 45.872498%)" fill-opacity="1" d="M 840.738281 1740.367188 C 841.269531 1744.453125 843.546875 1748.175781 848.199219 1751.164062 C 850.550781 1752.675781 856.472656 1753.765625 862.140625 1754.335938 C 880.789062 1756.210938 905.449219 1754.28125 924.3125 1758.996094 C 933.78125 1761.359375 952.289062 1765.417969 966.585938 1763.128906 C 974.824219 1761.8125 981.664062 1758.382812 984.570312 1751.308594 C 987.84375 1743.320312 980.835938 1738.902344 974.066406 1735.53125 C 961.136719 1729.097656 950.753906 1723.523438 940.398438 1717.445312 C 921.097656 1706.117188 909.097656 1695.6875 888.332031 1687.753906 L 872.441406 1679.316406 C 860.238281 1699.664062 837.113281 1712.535156 840.738281 1740.367188 "/>
<path fill-rule="evenodd" fill="rgb(100%, 84.764099%, 38.035583%)" fill-opacity="1" d="M 936.953125 1433.253906 C 932.054688 1484.527344 924.535156 1547.5 918.15625 1597.257812 C 915.867188 1615.105469 913.84375 1633.0625 912.332031 1651.261719 L 907.757812 1691.644531 C 889.070312 1701.628906 873.480469 1700.386719 862.394531 1685.144531 C 864.433594 1583.757812 838.742188 1530.550781 859.757812 1473.4375 C 863.734375 1462.632812 863.46875 1456.414062 864.433594 1444.964844 C 864.433594 1444.964844 901.65625 1455.324219 909.652344 1452.335938 C 917.648438 1449.34375 920.226562 1445.871094 922.085938 1444.34375 C 923.941406 1442.8125 936.953125 1433.253906 936.953125 1433.253906 "/>
<path fill-rule="evenodd" fill="rgb(94.921875%, 74.414062%, 59.959412%)" fill-opacity="1" d="M 833.546875 907.738281 C 833.53125 915.449219 807.648438 954.878906 768.660156 902.808594 C 780.3125 892.019531 791.269531 897.921875 804.683594 902.949219 C 812.699219 904.609375 825.96875 905.679688 833.546875 907.738281 "/>
<path fill-rule="evenodd" fill="rgb(26.268005%, 68.943787%, 72.851562%)" fill-opacity="1" d="M 626.828125 653.539062 C 687.582031 704.019531 695.910156 794.191406 645.429688 854.949219 C 594.949219 915.699219 504.773438 924.03125 444.023438 873.550781 C 383.269531 823.058594 374.941406 732.890625 425.421875 672.140625 C 475.90625 611.390625 566.078125 603.058594 626.828125 653.539062 "/>
<path fill-rule="evenodd" fill="rgb(29.417419%, 52.539062%, 54.881287%)" fill-opacity="1" d="M 610.210938 673.539062 C 659.917969 714.839844 666.730469 788.621094 625.429688 838.328125 C 584.125 888.039062 510.347656 894.851562 460.640625 853.539062 C 410.933594 812.238281 404.121094 738.460938 445.425781 688.761719 C 486.726562 639.050781 560.503906 632.238281 610.210938 673.539062 "/>
<path fill-rule="evenodd" fill="rgb(87.889099%, 99.609375%, 100%)" fill-opacity="1" d="M 606.058594 678.539062 C 653.003906 717.550781 659.4375 787.230469 620.429688 834.171875 C 581.421875 881.121094 511.742188 887.550781 464.796875 848.539062 C 417.851562 809.539062 411.414062 739.859375 450.425781 692.910156 C 489.433594 645.96875 559.113281 639.53125 606.058594 678.539062 "/>
<path fill-rule="evenodd" fill="rgb(100%, 84.764099%, 38.035583%)" fill-opacity="1" d="M 1284.410156 717.179688 C 1357.621094 687.53125 1441.011719 722.839844 1470.660156 796.050781 C 1500.308594 869.261719 1465 952.648438 1391.789062 982.300781 C 1318.570312 1011.949219 1235.191406 976.640625 1205.53125 903.429688 C 1175.878906 830.21875 1211.199219 746.828125 1284.410156 717.179688 "/>
<path fill-rule="evenodd" fill="rgb(94.921875%, 68.164062%, 18.431091%)" fill-opacity="1" d="M 1294.171875 741.28125 C 1354.070312 717.019531 1422.300781 745.910156 1446.558594 805.808594 C 1470.820312 865.710938 1441.921875 933.941406 1382.019531 958.199219 C 1322.121094 982.460938 1253.898438 953.570312 1229.640625 893.671875 C 1205.378906 833.769531 1234.269531 765.539062 1294.171875 741.28125 "/>
<path fill-rule="evenodd" fill="rgb(100%, 88.28125%, 52.146912%)" fill-opacity="1" d="M 1296.609375 747.308594 C 1353.179688 724.390625 1417.621094 751.679688 1440.53125 808.25 C 1463.441406 864.828125 1436.160156 929.261719 1379.578125 952.179688 C 1323.011719 975.089844 1258.570312 947.800781 1235.660156 891.230469 C 1212.75 834.648438 1240.039062 770.21875 1296.609375 747.308594 "/>
<path fill-rule="evenodd" fill="rgb(93.359375%, 29.026794%, 28.637695%)" fill-opacity="1" d="M 1850.261719 1072.128906 C 1897.691406 1183.238281 1951.238281 964.519531 1967.46875 913.601562 L 1924.480469 894.230469 L 1871.648438 1005.878906 L 1850.238281 1047.660156 L 1850.261719 1072.128906 "/>
<path fill-rule="evenodd" fill="rgb(98.826599%, 89.0625%, 76.951599%)" fill-opacity="1" d="M 1251.519531 964.179688 L 1267.769531 959.769531 C 1289.148438 969.5 1321.488281 977.648438 1298.839844 988.878906 L 1289.761719 994.210938 L 1275.140625 1006.421875 L 1264.289062 999.910156 L 1249.71875 980.089844 L 1251.519531 964.179688 "/>
<path fill-rule="evenodd" fill="rgb(85.15625%, 19.604492%, 31.37207%)" fill-opacity="1" d="M 667.238281 974.5 L 609.085938 1075.28125 L 605.847656 1112.398438 C 634.796875 1154.699219 654.804688 1121.921875 677.035156 1090.179688 C 701.492188 1055.25 734.40625 1011.910156 753.714844 975.140625 C 797.234375 892.25 721.617188 867.160156 667.238281 974.5 "/>
<path fill-rule="evenodd" fill="rgb(85.15625%, 19.604492%, 31.37207%)" fill-opacity="1" d="M 653.960938 1096.859375 C 626.894531 1212.800781 537.574219 1009.648438 513.121094 963.011719 L 551.546875 936.859375 L 621.882812 1036.210938 L 649.796875 1073.109375 L 653.960938 1096.859375 "/>
<path fill-rule="evenodd" fill="rgb(98.826599%, 89.0625%, 76.951599%)" fill-opacity="1" d="M 538.269531 907.78125 L 536.019531 922.859375 L 509.617188 934.429688 L 487.523438 927.691406 C 483.519531 924.511719 479.402344 921.25 476.027344 917.628906 C 474.027344 915.488281 472.285156 913.210938 470.984375 910.75 L 469.535156 904.070312 L 469.394531 902.828125 L 470.058594 901.621094 L 468.828125 899.25 L 462.433594 892.230469 L 459.746094 887.859375 L 461.273438 884.03125 L 464.414062 883 L 467.03125 883.75 L 467.976562 884.289062 L 469.800781 883.800781 L 471.4375 884.179688 L 472.855469 885.03125 L 473.628906 883.921875 L 476.785156 883.839844 L 482.714844 886.519531 L 496.035156 893.421875 L 504.191406 897.75 L 505.328125 898.820312 L 510.902344 900.160156 L 523.859375 904.128906 L 530.980469 905.621094 L 538.269531 907.78125 "/>
<path fill-rule="evenodd" fill="rgb(94.921875%, 68.164062%, 18.431091%)" fill-opacity="1" d="M 1312.570312 937.769531 C 1318.25 939.578125 1324.390625 936.410156 1326.199219 930.730469 L 1327.5 926.648438 C 1336.21875 927.839844 1345.148438 927.171875 1354.261719 924.640625 C 1360.921875 922.851562 1367 919.238281 1372.488281 913.820312 C 1377.988281 908.390625 1382.101562 901.410156 1384.828125 892.851562 C 1387.550781 884.300781 1388.171875 876.558594 1386.679688 869.640625 C 1385.191406 862.710938 1382.328125 857.269531 1378.078125 853.308594 C 1373.828125 849.339844 1369.011719 845.601562 1363.621094 842.070312 C 1360.988281 840.351562 1358.441406 838.761719 1355.96875 837.320312 L 1363.53125 813.578125 C 1364.199219 814.5 1364.910156 815.621094 1365.640625 816.949219 C 1366.429688 818.359375 1366.96875 819.261719 1367.28125 819.648438 C 1370.519531 823.578125 1373.53125 825.980469 1376.289062 826.859375 C 1381.03125 828.371094 1386.679688 826.550781 1393.25 821.398438 C 1397.878906 817.800781 1400.609375 814.679688 1401.449219 812.050781 C 1402.28125 809.421875 1401.269531 805.550781 1398.410156 800.429688 L 1394.671875 795.109375 C 1392.839844 792.210938 1389 788.699219 1383.128906 784.578125 C 1380.441406 782.691406 1377.539062 780.96875 1374.421875 779.421875 L 1375.71875 775.339844 C 1377.53125 769.660156 1374.359375 763.519531 1368.679688 761.710938 C 1363 759.898438 1356.871094 763.070312 1355.050781 768.75 L 1353.878906 772.449219 C 1342.511719 770.328125 1332.261719 771.628906 1323.148438 776.339844 C 1311.78125 782.210938 1304.25 790.929688 1300.558594 802.511719 C 1297.878906 810.929688 1297.261719 818.671875 1298.710938 825.730469 C 1300.148438 832.78125 1302.941406 838.488281 1307.058594 842.851562 C 1311.179688 847.199219 1315.808594 851.320312 1320.949219 855.210938 C 1322.75 856.570312 1324.53125 857.851562 1326.28125 859.050781 L 1317.828125 885.539062 L 1317.808594 885.519531 C 1315.039062 882.390625 1313.089844 879.410156 1311.960938 876.589844 C 1307.480469 867.910156 1303.390625 862.988281 1299.710938 861.808594 C 1296.019531 860.640625 1292.03125 861.109375 1287.738281 863.21875 C 1280.320312 866.941406 1276.078125 870.480469 1275.011719 873.828125 C 1273.941406 877.191406 1274.441406 881.519531 1276.519531 886.820312 L 1277.609375 889.550781 C 1279.109375 894.378906 1282.679688 900.011719 1288.308594 906.449219 C 1291.019531 909.769531 1294.890625 913.070312 1299.941406 916.351562 C 1302.109375 917.761719 1304.398438 919.050781 1306.78125 920.21875 L 1305.53125 924.140625 C 1303.71875 929.828125 1306.890625 935.960938 1312.570312 937.769531 Z M 1338.210938 893.039062 L 1345.101562 871.421875 C 1345.71875 872.019531 1346.289062 872.621094 1346.828125 873.238281 C 1349.539062 876.351562 1350.410156 879.421875 1349.441406 882.449219 C 1347.460938 888.679688 1343.710938 892.210938 1338.210938 893.039062 Z M 1342.898438 806.878906 L 1337.261719 824.589844 C 1334.660156 821.308594 1333.929688 817.871094 1335.078125 814.269531 C 1336.230469 810.660156 1338.550781 808.28125 1342.03125 807.140625 C 1342.320312 807.039062 1342.609375 806.960938 1342.898438 806.878906 "/>
<path fill-rule="evenodd" fill="rgb(26.268005%, 68.943787%, 72.851562%)" fill-opacity="1" d="M 577.667969 840.261719 L 582.808594 837.609375 C 586.007812 835.960938 587.273438 831.988281 585.621094 828.789062 L 580.574219 819.019531 L 584.414062 817.039062 C 594.945312 811.601562 601.964844 803.238281 605.472656 791.949219 C 608.980469 780.671875 607.984375 769.421875 602.484375 758.21875 C 597.507812 748.578125 589.746094 741.570312 579.203125 737.179688 C 580.265625 728.910156 578.910156 721.121094 575.136719 713.808594 C 569.929688 703.71875 561.863281 696.929688 550.941406 693.449219 C 540.40625 689.898438 530.039062 690.761719 519.84375 696.019531 L 517.664062 697.148438 L 510.816406 683.871094 C 509.164062 680.671875 505.195312 679.410156 501.996094 681.058594 L 496.855469 683.710938 C 493.65625 685.359375 492.390625 689.328125 494.042969 692.53125 L 500.894531 705.800781 L 477.945312 717.648438 C 470.851562 721.308594 467.300781 725.039062 467.292969 728.828125 C 467.265625 730.960938 467.480469 732.671875 467.945312 733.96875 C 468.40625 735.28125 469.324219 737.261719 470.699219 739.921875 L 518.332031 832.199219 C 520.335938 836.078125 522.15625 838.789062 523.792969 840.328125 C 527.296875 843.851562 532.929688 843.609375 540.6875 839.609375 L 563.800781 827.679688 L 568.847656 837.449219 C 570.5 840.648438 574.46875 841.910156 577.667969 840.261719 Z M 565.386719 789.589844 L 553.886719 767.308594 C 557.589844 765.460938 560.703125 764.410156 563.230469 764.171875 C 565.015625 764.089844 566.613281 764.671875 568.023438 765.910156 C 569.433594 767.140625 570.824219 769.089844 572.199219 771.75 C 576.089844 779.289062 574.542969 784.859375 567.5625 788.46875 Z M 541.613281 743.539062 L 541.570312 743.460938 L 532.882812 726.621094 C 535.730469 725.359375 538.144531 724.789062 540.132812 724.929688 C 542.53125 725.089844 544.449219 726.558594 545.878906 729.328125 C 547.308594 732.101562 548.171875 734.179688 548.46875 735.570312 C 548.785156 738.359375 546.726562 740.890625 542.289062 743.179688 C 542.0625 743.300781 541.835938 743.421875 541.613281 743.539062 Z M 516.085938 735.230469 L 524.800781 752.121094 L 516.480469 756.410156 L 507.765625 739.53125 Z M 537.113281 775.96875 L 548.609375 798.25 L 540.292969 802.539062 L 528.796875 780.269531 L 537.113281 775.96875 "/>
</svg>
